<svg width="64" height="64" fill="none" xmlns="http://www.w3.org/2000/svg"><g clip-path="url(#a)"><path d="m8.764 55.81 22.7-23.558a.427.427 0 0 0 .05-.544c-1.38-1.95-3.927-2.289-4.871-3.6-2.796-3.884-3.506-6.082-4.707-5.946a.366.366 0 0 0-.218.117l-8.2 8.51C8.8 35.683 8.122 46.466 8 55.496a.454.454 0 0 0 .277.42.44.44 0 0 0 .487-.105Z" fill="#017CEE"/><path d="M55.22 55.229 31.952 32.244a.417.417 0 0 0-.537-.051c-1.927 1.398-2.261 3.976-3.556 4.932-3.836 2.831-6.007 3.55-5.873 4.766a.374.374 0 0 0 .116.22l8.405 8.302C35.34 55.19 45.99 55.876 54.908 56a.44.44 0 0 0 .412-.28.455.455 0 0 0-.1-.491Z" fill="#00AD46"/><path d="M30.508 50.416c-2.642-2.61-3.866-7.77 1.196-18.414-8.23 3.724-11.113 8.618-9.695 10.02l8.499 8.394Z" fill="#04D659"/><path d="M54.645 8.193 31.946 31.752a.426.426 0 0 0-.05.543c1.38 1.951 3.926 2.29 4.871 3.6 2.796 3.884 3.506 6.082 4.707 5.946a.364.364 0 0 0 .218-.117l8.2-8.51c4.717-4.893 5.395-15.676 5.518-24.706a.454.454 0 0 0-.278-.419.44.44 0 0 0-.487.104Z" fill="#00C7D4"/><path d="M49.896 33.214c-2.577 2.674-7.675 3.913-18.187-1.212 3.678 8.332 8.512 11.252 9.896 9.816l8.29-8.604Z" fill="#11E1EE"/><path d="m8.188 8.775 23.268 22.982a.417.417 0 0 0 .536.051c1.927-1.398 2.262-3.977 3.557-4.932 3.835-2.831 6.006-3.55 5.872-4.766a.375.375 0 0 0-.115-.221L32.9 13.587C28.068 8.81 17.418 8.124 8.5 8a.44.44 0 0 0-.415.28.455.455 0 0 0 .103.495Z" fill="#E43921"/><path fill-rule="evenodd" clip-rule="evenodd" d="M32.904 13.588c2.641 2.609 3.865 7.77-1.197 18.414 8.23-3.724 11.114-8.62 9.695-10.02l-8.498-8.394Z" fill="#FF7557"/><path d="M13.518 30.79c2.577-2.674 7.674-3.913 18.187 1.212-3.678-8.332-8.512-11.252-9.896-9.816l-8.291 8.604Z" fill="#0CB6FF"/><path d="M31.708 33.025c.56 0 1.015-.46 1.015-1.027a1.02 1.02 0 0 0-1.015-1.027c-.56 0-1.015.46-1.015 1.027s.455 1.027 1.015 1.027Z" fill="#4A4848"/></g><defs><clipPath id="a"><path fill="#fff" transform="translate(8 8)" d="M0 0h48v48H0z"/></clipPath></defs></svg>