<svg width="84" height="90" fill="none" xmlns="http://www.w3.org/2000/svg"><path d="M83.92 39.666c-.099-1.552-.393-3.297-.885-5.14-.491-1.94-1.277-3.976-2.358-6.207-1.081-2.134-2.555-4.461-4.422-6.595a18.977 18.977 0 0 0-2.358-2.521c1.277-5.043-1.573-9.408-1.573-9.408-4.913-.29-8.058 1.455-9.237 2.328-.196-.097-.393-.194-.59-.194-.785-.291-1.67-.679-2.554-.873-.885-.194-1.77-.485-2.752-.776-.884-.194-1.867-.388-2.85-.582-.196 0-.294-.097-.49-.097C51.687 2.812 45.595 0 45.595 0c-6.879 4.267-8.156 10.28-8.156 10.28s0 .097-.099.388l-1.179.291a9.76 9.76 0 0 1-1.572.485c-.492.194-1.081.388-1.572.582-.983.388-2.064.97-3.047 1.455-.982.582-1.965 1.163-2.85 1.745-.098-.097-.196-.097-.196-.097-9.532-3.588-17.983.68-17.983.68-.688 10.085 3.833 16.39 4.717 17.553-.197.582-.393 1.26-.59 1.843-.687 2.23-1.179 4.558-1.572 6.983 0 .29-.098.678-.098 1.066C2.653 47.522 0 56.25 0 56.25c7.37 8.34 15.82 8.825 15.82 8.825 1.082 1.94 2.36 3.686 3.735 5.431.59.68 1.18 1.358 1.867 2.037-2.653 7.565.393 13.772.393 13.772 8.156.29 13.561-3.492 14.642-4.365.786.291 1.67.485 2.457.68 2.456.678 5.11.97 7.664 1.163h3.243C53.654 89.224 60.434 90 60.434 90c4.815-5.043 5.11-9.99 5.11-11.056v-.485a31.878 31.878 0 0 0 2.85-2.23 28.214 28.214 0 0 0 5.011-5.82c.099-.194.295-.388.393-.581 5.405.29 9.237-3.298 9.237-3.298-.884-5.625-4.127-8.34-4.815-8.825h-.196s-.099 0-.099-.097c0-.291.099-.68.099-.97 0-.582.098-1.164.098-1.843v-2.327c0-.194 0-.291-.098-.485l-.099-.485-.098-.485c-.098-.582-.196-1.26-.393-1.843-.59-2.424-1.474-4.655-2.751-6.788a24.74 24.74 0 0 0-4.619-5.432c-1.769-1.551-3.734-2.812-5.798-3.685-2.063-.873-4.225-1.552-6.387-1.746-1.08-.097-2.162-.194-3.243-.194h-1.572c-.59 0-1.08.097-1.67.194-2.162.388-4.226 1.164-5.995 2.231a19.89 19.89 0 0 0-4.618 3.88c-1.278 1.454-2.26 3.2-2.948 4.848-.688 1.746-1.081 3.492-1.18 5.237v2.522c.099.873.197 1.746.492 2.522.491 1.648 1.179 3.103 2.162 4.267.884 1.26 2.063 2.23 3.242 3.103a14.478 14.478 0 0 0 3.735 1.746c1.277.388 2.456.485 3.636.485h1.572c.196 0 .295-.097.393-.097.098 0 .295-.097.393-.097.295-.097.491-.097.786-.194l1.474-.582c.491-.194.884-.485 1.278-.776.098-.097.196-.194.294-.194.393-.29.492-.873.197-1.26-.295-.388-.786-.388-1.18-.194-.098 0-.196.096-.294.194-.295.193-.688.29-1.081.387l-1.18.291c-.196 0-.392.097-.589.097h-1.277s-.099 0 0 0h-.59c-.884-.097-1.867-.388-2.751-.776-.885-.387-1.77-.97-2.555-1.648a9.311 9.311 0 0 1-1.966-2.425c-.491-.97-.884-1.94-1.08-3.103-.099-.582-.099-1.067-.099-1.649v-.873c0-.29.098-.582.098-.873.393-2.424 1.67-4.752 3.538-6.498.491-.387.983-.872 1.474-1.163.491-.388 1.08-.68 1.67-.97.59-.291 1.18-.485 1.868-.679a6.412 6.412 0 0 1 1.965-.29h1.67c.099 0 0 0 0 0h.394c.687.096 1.474.193 2.161.29 1.376.291 2.752.776 4.03 1.552 2.554 1.358 4.716 3.588 6.092 6.207.688 1.357 1.179 2.715 1.376 4.17.098.388.098.776.098 1.067v2.328c0 .387-.098.775-.098 1.163-.099.388-.099.776-.197 1.164l-.295 1.164c-.196.775-.491 1.551-.786 2.327a20.337 20.337 0 0 1-2.358 4.267 20.025 20.025 0 0 1-7.567 6.11 19.028 19.028 0 0 1-4.717 1.455c-.786.097-1.67.194-2.456.194h-1.18c.099 0 0 0 0 0h-.098c-.393 0-.884 0-1.277-.097a23.377 23.377 0 0 1-5.208-.873c-1.67-.485-3.342-1.163-4.914-1.94-3.144-1.648-5.896-3.879-8.058-6.594-1.08-1.358-2.063-2.813-2.85-4.267-.785-1.552-1.375-3.104-1.866-4.753-.492-1.648-.688-3.297-.885-4.946v-2.618c0-.873.098-1.649.197-2.522.098-.873.294-1.745.393-2.521.196-.873.393-1.65.59-2.522.49-1.649 1.08-3.297 1.768-4.752 1.376-3.006 3.243-5.722 5.503-7.856.59-.582 1.18-1.066 1.769-1.551.59-.485 1.18-.873 1.867-1.358.59-.388 1.278-.776 1.965-1.164.295-.194.688-.29.983-.485.197-.097.393-.194.491-.194.197-.097.393-.194.492-.194.688-.29 1.474-.582 2.161-.776.197-.097.394-.097.59-.194.197-.097.393-.097.59-.194.393-.097.786-.194 1.08-.29.197 0 .394-.098.59-.098.197 0 .393-.097.59-.097.196 0 .393-.096.59-.096h.589c.197 0 .393-.097.59-.097.196 0 .393 0 .688-.097.196 0 .49-.097.687-.097h1.966s.098 0 0 0h2.948c1.474.097 2.85.194 4.323.485a29.09 29.09 0 0 1 7.764 2.521c2.358 1.164 4.52 2.522 6.387 4.073l.295.291.294.291c.197.194.394.388.688.582l.59.582.59.582c.786.776 1.474 1.649 2.161 2.521 1.278 1.65 2.359 3.395 3.243 4.947.099.097.099.194.197.29.098.097.098.194.196.291l.295.582.295.582c.098.194.196.388.196.582.295.776.59 1.455.787 2.134.393 1.067.687 2.036.884 2.91.098.29.393.581.786.484a.667.667 0 0 0 .688-.679c.491-1.26.393-2.327.295-3.588Z" fill="url(#a)"/><defs><linearGradient id="a" x1="42.069" y1="110.29" x2="42.069" y2="27.956" gradientUnits="userSpaceOnUse"><stop stop-color="#FFF100"/><stop offset="1" stop-color="#F05A28"/></linearGradient></defs></svg>