<svg version="2.0" viewBox="0 0 44 51" xmlns="http://www.w3.org/2000/svg" xmlns:xlink="http://www.w3.org/1999/xlink"><g style="mix-blend-mode:normal"><g style="mix-blend-mode:normal" fill="#4E4E4E"><use transform="translate(.5 21.4)" style="mix-blend-mode:normal" xlink:href="#a"/><use transform="translate(5.7 21.4)" style="mix-blend-mode:normal" xlink:href="#b"/><use transform="translate(13.4 21.3)" style="mix-blend-mode:normal" xlink:href="#c"/><use transform="translate(20.4 21.4)" style="mix-blend-mode:normal" xlink:href="#d"/><use transform="translate(27.6 19.5)" style="mix-blend-mode:normal" xlink:href="#e"/><use transform="translate(32.5 21.3)" style="mix-blend-mode:normal" xlink:href="#f"/><use transform="translate(40 21.2)" style="mix-blend-mode:normal" xlink:href="#g"/></g><g style="mix-blend-mode:normal"><use transform="translate(33.5 .7)" fill="#767677" style="mix-blend-mode:normal" xlink:href="#h"/><use transform="translate(3.2 31.3)" fill="#F37726" style="mix-blend-mode:normal" xlink:href="#i"/><use transform="translate(3.2 4.9)" fill="#F37726" style="mix-blend-mode:normal" xlink:href="#j"/><use transform="translate(3.3 43.1)" fill="#9E9E9E" style="mix-blend-mode:normal" xlink:href="#k"/><use transform="translate(1.9 5.4)" fill="#616262" style="mix-blend-mode:normal" xlink:href="#l"/></g></g><defs><path id="a" d="M1.745 5.475c0 1.558-.125 2.066-.445 2.44a1.94 1.94 0 0 1-1.3.498l.125.89a3.045 3.045 0 0 0 2.03-.738 3.561 3.561 0 0 0 .783-2.671V0H1.745v5.475z"/><path id="b" d="M5.502 4.763c0 .668 0 1.264.053 1.78H4.496l-.071-1.059A2.466 2.466 0 0 1 2.26 6.695C1.23 6.695 0 6.135 0 3.846V.044h1.193v3.562c0 1.237.383 2.065 1.46 2.065A1.665 1.665 0 0 0 4.336 3.99V0h1.193v4.728l-.027.035z"/><path id="c" d="M.053 2.273c0-.828 0-1.505-.053-2.12h1.068l.054 1.114A2.582 2.582 0 0 1 3.454.002c1.585 0 2.778 1.327 2.778 3.303 0 2.333-1.433 3.49-2.982 3.49a2.306 2.306 0 0 1-2.021-1.023v3.56H.053V2.274zM1.23 4.009c.003.161.02.322.053.48a1.834 1.834 0 0 0 1.78 1.38c1.256 0 1.995-1.023 1.995-2.51 0-1.3-.695-2.413-1.95-2.413a2.048 2.048 0 0 0-1.878 1.95v1.113z"/><path id="d" d="M1.318.018 2.75 3.855c.151.427.312.944.418 1.327.125-.392.259-.89.419-1.354l1.3-3.81h1.255l-1.78 4.63c-.89 2.225-1.434 3.374-2.253 4.068a3.24 3.24 0 0 1-1.46.766l-.294-.997c.38-.126.734-.322 1.042-.58a3.561 3.561 0 0 0 1.006-1.317.89.89 0 0 0 .098-.285 1.024 1.024 0 0 0-.08-.311L0 0h1.3l.018.018z"/><path id="e" d="M2.19 0v1.87H3.9v.89H2.19v3.508c0 .801.232 1.264.89 1.264.234.004.468-.023.695-.08l.053.89c-.34.118-.7.172-1.06.16a1.656 1.656 0 0 1-1.29-.498 2.395 2.395 0 0 1-.463-1.692V2.751H0v-.89h1.033V.276L2.19 0z"/><path id="f" d="M1.177 3.579A2.092 2.092 0 0 0 3.43 5.831a4.345 4.345 0 0 0 1.78-.338l.205.89a5.342 5.342 0 0 1-2.181.401A3.027 3.027 0 0 1 .01 3.508C.011 1.549 1.177 0 3.083 0c2.136 0 2.67 1.87 2.67 3.063.012.183.012.368 0 .552H1.151l.026-.036zm3.49-.89A1.683 1.683 0 0 0 3.011.766a1.968 1.968 0 0 0-1.825 1.923h3.481z"/><path id="g" d="M.053 2.192c0-.765 0-1.424-.053-2.03h1.068v1.273h.054A1.968 1.968 0 0 1 2.902.011a1.3 1.3 0 0 1 .339 0v1.113a1.78 1.78 0 0 0-.41 0 1.665 1.665 0 0 0-1.593 1.513 3.293 3.293 0 0 0-.054.552v3.464H.01V2.2l.045-.009z"/><path id="h" d="M6.03 2.836A3.018 3.018 0 1 1 2.889.004 2.982 2.982 0 0 1 6.03 2.836z"/><path id="i" d="M18.696 7.122C10.683 7.122 3.641 4.247 0 0a19.934 19.934 0 0 0 37.393 0C33.76 4.247 26.745 7.122 18.697 7.122z"/><path id="j" d="M18.696 5.897c8.013 0 15.055 2.876 18.696 7.123a19.934 19.934 0 0 0-37.393 0c3.642-4.256 10.648-7.123 18.696-7.123z"/><path id="k" d="M7.596 3.567A3.801 3.801 0 1 1 3.634.005a3.766 3.766 0 0 1 3.962 3.562z"/><path id="l" d="M2.25 4.38A2.19 2.19 0 1 1 4.379 2.1a2.217 2.217 0 0 1-2.127 2.28z"/></defs></svg>