<svg width="200" height="200" fill="none" xmlns="http://www.w3.org/2000/svg"><path d="M157.926 18.113C117.197-10.349 61.744-4.752 27.541 31.271-6.663 67.294-9.315 122.893 21.305 162l30.572-22.411a62.948 62.948 0 0 1-7.935-66.447c10.322-21.838 32.232-35.864 56.411-36.112l-.723 23.856 58.296-42.773Z" fill="#43C9ED"/><path d="M180.532 40.379a88.495 88.495 0 0 0-3.16-4.098L147.934 57.97c16.618 18.367 20.93 44.75 11.021 67.441-9.909 22.69-32.203 37.484-56.988 37.818l.724-23.832-58.948 43.376c40.398 27.167 94.502 21.41 128.262-13.648 33.76-35.058 37.407-89.275 8.648-128.529l-.121-.216Z" fill="#0194E2"/></svg>